<svg xmlns="http://www.w3.org/2000/svg">
  <symbol id="home" viewBox="0 0 48 48"><path d="M8 38V19l16-11 16 11v19H8Z" fill="none" stroke="currentColor" stroke-width="2.5" stroke-linejoin="round"/><path d="M16 38V24h16v14M24 5v8M20 9h8" fill="none" stroke="currentColor" stroke-width="2.2" stroke-linecap="round"/><path d="M24 3l2 4 4 2-4 2-2 4-2-4-4-2 4-2 2-4Z" fill="currentColor" opacity=".8"/></symbol>
  <symbol id="codex" viewBox="0 0 48 48"><path d="M9 8h24a6 6 0 0 1 6 6v26H15a6 6 0 0 1-6-6V8Z" fill="none" stroke="currentColor" stroke-width="2.5"/><path d="M15 8v32M22 17h10M22 23h8" stroke="currentColor" stroke-width="2.2" stroke-linecap="round"/><path d="M34 5l1.7 3.3L39 10l-3.3 1.7L34 15l-1.7-3.3L29 10l3.3-1.7L34 5Z" fill="currentColor"/></symbol>
  <symbol id="trials" viewBox="0 0 48 48"><path d="M24 5 42 38H6L24 5Z" fill="none" stroke="currentColor" stroke-width="2.5" stroke-linejoin="round"/><circle cx="24" cy="27" r="6" fill="none" stroke="currentColor" stroke-width="2.2"/><path d="M24 13v8M13 33l7-4M35 33l-7-4" stroke="currentColor" stroke-width="2" stroke-linecap="round"/></symbol>
  <symbol id="atlas" viewBox="0 0 48 48"><circle cx="24" cy="24" r="16" fill="none" stroke="currentColor" stroke-width="2.3"/><ellipse cx="24" cy="24" rx="20" ry="7" transform="rotate(-18 24 24)" fill="none" stroke="currentColor" stroke-width="2.1"/><ellipse cx="24" cy="24" rx="17" ry="5" transform="rotate(52 24 24)" fill="none" stroke="currentColor" stroke-width="1.8"/><circle cx="24" cy="24" r="3" fill="currentColor"/></symbol>
  <symbol id="profile" viewBox="0 0 48 48"><circle cx="24" cy="16" r="8" fill="none" stroke="currentColor" stroke-width="2.4"/><path d="M10 40c1-9 6-13 14-13s13 4 14 13" fill="none" stroke="currentColor" stroke-width="2.4" stroke-linecap="round"/><path d="M37 8a9 9 0 1 0 3 14 10 10 0 1 1-3-14Z" fill="currentColor" opacity=".55"/></symbol>
  <symbol id="speaker" viewBox="0 0 48 48"><path d="M8 20h8l10-8v24l-10-8H8V20Z" fill="none" stroke="currentColor" stroke-width="2.4" stroke-linejoin="round"/><path d="M31 18c3 3 3 9 0 12M35 13c7 6 7 16 0 22" fill="none" stroke="currentColor" stroke-width="2.4" stroke-linecap="round"/></symbol>
  <symbol id="favorite" viewBox="0 0 48 48"><path d="m24 6 5.3 10.7L41 18.4l-8.5 8.3 2 11.7L24 32.9l-10.5 5.5 2-11.7L7 18.4l11.7-1.7L24 6Z" fill="none" stroke="currentColor" stroke-width="2.4" stroke-linejoin="round"/></symbol>
  <symbol id="back" viewBox="0 0 48 48"><path d="M29 10 15 24l14 14M16 24h23" fill="none" stroke="currentColor" stroke-width="2.8" stroke-linecap="round" stroke-linejoin="round"/></symbol>
  <symbol id="close" viewBox="0 0 48 48"><path d="m13 13 22 22M35 13 13 35" fill="none" stroke="currentColor" stroke-width="2.8" stroke-linecap="round"/></symbol>
  <symbol id="search" viewBox="0 0 48 48"><circle cx="21" cy="21" r="12" fill="none" stroke="currentColor" stroke-width="2.5"/><path d="m30 30 10 10" stroke="currentColor" stroke-width="2.5" stroke-linecap="round"/></symbol>
  <symbol id="spark" viewBox="0 0 48 48"><path d="M24 4l4.5 15.5L44 24l-15.5 4.5L24 44l-4.5-15.5L4 24l15.5-4.5L24 4Z" fill="currentColor"/></symbol>
</svg>