<svg xmlns="http://www.w3.org/2000/svg" viewBox="0 0 1080 1920" preserveAspectRatio="xMidYMid slice">
  <defs>
    <linearGradient id="sky" x1="0" y1="0" x2="0" y2="1"><stop offset="0" stop-color="#080d19"/><stop offset=".55" stop-color="#111a31"/><stop offset="1" stop-color="#070b14"/></linearGradient>
    <radialGradient id="halo" cx="50%" cy="18%" r="55%"><stop offset="0" stop-color="#5364c8" stop-opacity=".32"/><stop offset=".62" stop-color="#172142" stop-opacity=".11"/><stop offset="1" stop-color="#090d18" stop-opacity="0"/></radialGradient>
    <linearGradient id="wood" x1="0" y1="0" x2="1" y2="0"><stop offset="0" stop-color="#070910"/><stop offset=".5" stop-color="#171427"/><stop offset="1" stop-color="#070910"/></linearGradient>
    <filter id="blur"><feGaussianBlur stdDeviation="18"/></filter>
  </defs>
  <rect width="1080" height="1920" fill="url(#sky)"/>
  <rect width="1080" height="1920" fill="url(#halo)"/>
  <g opacity=".48" fill="#cbd6ef">
    <circle cx="153" cy="147" r="2.6"/><circle cx="245" cy="88" r="1.8"/><circle cx="374" cy="163" r="2"/><circle cx="513" cy="89" r="2.4"/><circle cx="697" cy="131" r="1.5"/><circle cx="882" cy="84" r="2.2"/><circle cx="955" cy="188" r="1.8"/><circle cx="103" cy="337" r="1.4"/><circle cx="318" cy="293" r="2.1"/><circle cx="760" cy="281" r="1.7"/><circle cx="923" cy="365" r="2.2"/>
  </g>
  <g stroke="#7d8bb2" fill="none" opacity=".17"><circle cx="540" cy="235" r="176"/><circle cx="540" cy="235" r="126"/><ellipse cx="540" cy="235" rx="222" ry="67" transform="rotate(-19 540 235)"/><path d="M347 196 L419 112 L519 160 L613 91 L735 193 L674 318 L548 282 L462 351 L347 196Z"/></g>
  <g fill="url(#wood)" opacity=".93">
    <path d="M0 0 H220 V1920 H0Z"/><path d="M860 0 H1080 V1920 H860Z"/>
  </g>
  <g opacity=".48" stroke="#72603f" fill="none" stroke-width="8">
    <path d="M44 142 H186 M44 288 H186 M44 434 H186 M44 580 H186 M44 726 H186 M44 872 H186 M44 1018 H186 M44 1164 H186 M44 1310 H186"/>
    <path d="M894 142 H1036 M894 288 H1036 M894 434 H1036 M894 580 H1036 M894 726 H1036 M894 872 H1036 M894 1018 H1036 M894 1164 H1036 M894 1310 H1036"/>
  </g>
  <g fill="#8f7142" opacity=".26">
    <g transform="translate(54 154)"><rect width="18" height="102"/><rect x="25" width="13" height="102"/><rect x="45" width="28" height="102"/><rect x="80" width="15" height="102"/></g>
    <g transform="translate(904 154)"><rect width="21" height="102"/><rect x="29" width="14" height="102"/><rect x="51" width="24" height="102"/><rect x="84" width="12" height="102"/></g>
    <g transform="translate(54 594)"><rect width="14" height="102"/><rect x="22" width="31" height="102"/><rect x="61" width="15" height="102"/><rect x="84" width="12" height="102"/></g>
    <g transform="translate(904 594)"><rect width="26" height="102"/><rect x="34" width="13" height="102"/><rect x="55" width="19" height="102"/><rect x="82" width="15" height="102"/></g>
  </g>
  <path d="M220 1920 V655 Q220 365 540 292 Q860 365 860 655 V1920Z" fill="#0a0f1c" opacity=".66"/>
  <path d="M300 1920 V706 Q300 476 540 411 Q780 476 780 706 V1920Z" fill="#111b32" opacity=".44" stroke="#7d6b48" stroke-opacity=".28" stroke-width="4"/>
  <g transform="translate(540 1005)" opacity=".4" stroke="#d5b56e" fill="none"><circle r="160"/><circle r="112"/><ellipse rx="225" ry="72" transform="rotate(-14)"/><ellipse rx="197" ry="61" transform="rotate(48)"/><path d="M0-190V190M-190 0H190"/></g>
  <circle cx="540" cy="1005" r="13" fill="#efd486" opacity=".68" filter="url(#blur)"/>
  <circle cx="540" cy="1005" r="4" fill="#f8e7b2"/>
  <rect y="1340" width="1080" height="580" fill="url(#sky)" opacity=".68"/>
  <g opacity=".23" stroke="#42527f" fill="none"><path d="M80 1610 Q540 1455 1000 1610"/><path d="M130 1710 Q540 1580 950 1710"/><circle cx="540" cy="1682" r="190"/></g>
</svg>